#!OML:ASF F:\VICON\USERDATA\INSTALL\rory3\rory3.ASF
:FULLY-SPECIFIED
:DEGREES
288
root 0.480913 19.4836 -8.53825 173.339 -40.5794 181.668
lowerback 16.6446 -1.75432 -2.57961
upperback -2.96717 -2.69244 1.82352
thorax -12.4774 -0.989531 4.21784
lowerneck -3.71462 -13.48 -7.74091
upperneck -0.889113 -17.7362 5.52631
head 1.59727 -8.81964 2.41438
rclavicle -7.524e-014 -6.16232e-015
rhumerus 60.1105 -12.6339 -56.5059
rradius 26.3618
rwrist 36.8225
rhand 22.2038 2.54056
rfingers 7.12502
rthumb 46.5823 -20.3075
lclavicle -7.524e-014 -6.16232e-015
lhumerus 75.3854 -19.5325 67.6751
lradius 68.6409
lwrist 42.5765
lhand -22.0713 54.3886
lfingers 7.12502
lthumb 4.33996 84.3241
rfemur -6.20759 -1.41466 21.8575
rtibia 31.106
rfoot 15.7499 -14.0769
rtoes 12.414
lfemur -4.77804 -11.0099 -19.1583
ltibia 27.7074
lfoot 21.0481 -3.32031
ltoes -8.66007
289
root 0.488971 19.4779 -8.53976 173.94 -40.799 181.023
lowerback 16.5521 -1.70681 -2.98259
upperback -2.93627 -2.72012 1.73157
thorax -12.3718 -0.980257 4.34515
lowerneck -3.67727 -13.5329 -7.81423
upperneck -1.24577 -17.8012 5.5223
head 1.48421 -8.85363 2.43664
rclavicle 8.36386e-014 3.33958e-014
rhumerus 59.5059 -12.0828 -55.807
rradius 26.9734
rwrist 36.5042
rhand 18.2841 3.22655
rfingers 7.12502
rthumb 42.9334 -21.0429
lclavicle 8.36386e-014 3.33958e-014
lhumerus 75.6761 -18.9854 67.2995
lradius 68.9973
lwrist 42.4925
lhand -22.1956 54.6794
lfingers 7.12502
lthumb 4.21988 84.6174
rfemur -6.48125 -1.68733 21.2166
rtibia 31.1806
rfoot 15.9427 -13.8269
rtoes 13.0354
lfemur -4.73566 -11.2005 -19.8256
ltibia 27.334
lfoot 21.2218 -2.87236
ltoes -9.05311
290
root 0.498235 19.4722 -8.54658 173.91 -40.8668 180.99
lowerback 16.673 -1.6838 -2.88858
upperback -2.73003 -2.66655 1.78729
thorax -12.2132 -0.9688 4.33763
lowerneck -4.11493 -13.5771 -7.9476
upperneck -1.49218 -17.8211 5.47553
head 1.487 -8.86069 2.41776
rclavicle -1.58531e-014 2.62396e-014
rhumerus 59.3712 -11.5112 -54.8029
rradius 27.5955
rwrist 34.9516
rhand 15.2008 2.53508
rfingers 7.12502
rthumb 40.0407 -22.6787
lclavicle -1.58531e-014 2.62396e-014
lhumerus 76.1392 -18.3114 67.0029
lradius 69.3141
lwrist 42.2597
lhand -22.1721 54.7555
lfingers 7.12502
lthumb 4.24259 84.6929
rfemur -6.56255 -1.62518 21.1402
rtibia 31.3915
rfoot 15.891 -13.7325
rtoes 14.4506
lfemur -4.44733 -11.4457 -19.9675
ltibia 27.0256
lfoot 21.1975 -2.44795
ltoes -9.35691
291
root 0.510843 19.4558 -8.55064 174.046 -40.9743 180.847
lowerback 16.7433 -1.65337 -2.86103
upperback -2.69314 -2.61763 1.8288
thorax -12.2163 -0.946739 4.35777
lowerneck -4.15056 -13.5145 -8.27791
upperneck -1.62717 -17.7179 5.48783
head 1.47608 -8.80813 2.48043
rclavicle -9.79014e-015 -1.51076e-014
rhumerus 59.151 -11.1219 -54.0823
rradius 27.8492
rwrist 34.4329
rhand 12.1453 2.86679
rfingers 7.12502
rthumb 37.1581 -23.1566
lclavicle -9.79014e-015 -1.51076e-014
lhumerus 76.4442 -17.7265 66.7647
lradius 69.2596
lwrist 42.1078
lhand -21.9137 54.698
lfingers 7.12502
lthumb 4.49208 84.6303
rfemur -6.74324 -1.73751 20.9376
rtibia 31.6449
rfoot 15.9422 -13.0815
rtoes 14.5607
lfemur -4.35573 -11.5607 -20.163
ltibia 26.8393
lfoot 21.0213 -2.2398
ltoes -10.6387
292
root 0.521131 19.4262 -8.54752 174.558 -41.1834 180.207
lowerback 16.9216 -1.64419 -2.98933
upperback -2.66317 -2.65121 1.68908
thorax -12.2852 -0.956388 4.2924
lowerneck -4.36415 -13.4701 -8.28994
upperneck -1.89484 -17.6393 5.27709
head 1.39685 -8.77 2.41722
rclavicle 7.46933e-014 4.37326e-015
rhumerus 59.282 -11.0393 -54.225
rradius 28.1305
rwrist 33.77
rhand 10.3336 2.47359
rfingers 7.12502
rthumb 35.4427 -23.9779
lclavicle 7.46933e-014 4.37326e-015
lhumerus 76.7445 -17.1951 66.4604
lradius 69.2282
lwrist 41.7165
lhand -21.6391 54.5725
lfingers 7.12502
lthumb 4.75726 84.4991
rfemur -6.8901 -2.27582 20.2444
rtibia 31.8533
rfoot 15.6686 -12.0139
rtoes 14.2637
lfemur -4.41315 -11.4953 -20.769
ltibia 26.832
lfoot 20.7264 -2.2301
ltoes -11.5742
